<mxfile host="app.diagrams.net" agent="Mozilla/5.0 (Windows NT 10.0; Win64; x64) AppleWebKit/537.36 (KHTML, like Gecko) Chrome/131.0.0.0 Safari/537.36" version="26.0.4">
  <diagram id="C5RBs43oDa-KdzZeNtuy" name="Page-1">
    <mxGraphModel dx="2003" dy="752" grid="1" gridSize="10" guides="1" tooltips="1" connect="1" arrows="1" fold="1" page="1" pageScale="1" pageWidth="827" pageHeight="1169" math="0" shadow="0">
      <root>
        <mxCell id="WIyWlLk6GJQsqaUBKTNV-0" />
        <mxCell id="WIyWlLk6GJQsqaUBKTNV-1" parent="WIyWlLk6GJQsqaUBKTNV-0" />
        <mxCell id="OphT5D2Mqw6Sx7CG2eE--9" style="edgeStyle=orthogonalEdgeStyle;rounded=0;orthogonalLoop=1;jettySize=auto;html=1;exitX=0.5;exitY=1;exitDx=0;exitDy=0;exitPerimeter=0;entryX=0.5;entryY=0;entryDx=0;entryDy=0;" edge="1" parent="WIyWlLk6GJQsqaUBKTNV-1" source="OphT5D2Mqw6Sx7CG2eE--0" target="OphT5D2Mqw6Sx7CG2eE--4">
          <mxGeometry relative="1" as="geometry" />
        </mxCell>
        <mxCell id="OphT5D2Mqw6Sx7CG2eE--0" value="START" style="strokeWidth=2;html=1;shape=mxgraph.flowchart.start_1;whiteSpace=wrap;" vertex="1" parent="WIyWlLk6GJQsqaUBKTNV-1">
          <mxGeometry x="150" y="40" width="100" height="60" as="geometry" />
        </mxCell>
        <mxCell id="OphT5D2Mqw6Sx7CG2eE--1" value="READ PIN" style="shape=parallelogram;html=1;strokeWidth=2;perimeter=parallelogramPerimeter;whiteSpace=wrap;rounded=1;arcSize=12;size=0.23;" vertex="1" parent="WIyWlLk6GJQsqaUBKTNV-1">
          <mxGeometry x="70" y="270" width="260" height="60" as="geometry" />
        </mxCell>
        <mxCell id="OphT5D2Mqw6Sx7CG2eE--7" style="edgeStyle=orthogonalEdgeStyle;rounded=0;orthogonalLoop=1;jettySize=auto;html=1;exitX=0.5;exitY=1;exitDx=0;exitDy=0;exitPerimeter=0;" edge="1" parent="WIyWlLk6GJQsqaUBKTNV-1" source="OphT5D2Mqw6Sx7CG2eE--2" target="OphT5D2Mqw6Sx7CG2eE--3">
          <mxGeometry relative="1" as="geometry" />
        </mxCell>
        <mxCell id="OphT5D2Mqw6Sx7CG2eE--8" value="YES" style="edgeLabel;html=1;align=center;verticalAlign=middle;resizable=0;points=[];" vertex="1" connectable="0" parent="OphT5D2Mqw6Sx7CG2eE--7">
          <mxGeometry x="-0.1822" y="1" relative="1" as="geometry">
            <mxPoint as="offset" />
          </mxGeometry>
        </mxCell>
        <mxCell id="OphT5D2Mqw6Sx7CG2eE--11" style="edgeStyle=orthogonalEdgeStyle;rounded=0;orthogonalLoop=1;jettySize=auto;html=1;exitX=1;exitY=0.5;exitDx=0;exitDy=0;exitPerimeter=0;entryX=0;entryY=0.5;entryDx=0;entryDy=0;" edge="1" parent="WIyWlLk6GJQsqaUBKTNV-1" source="OphT5D2Mqw6Sx7CG2eE--2" target="OphT5D2Mqw6Sx7CG2eE--10">
          <mxGeometry relative="1" as="geometry" />
        </mxCell>
        <mxCell id="OphT5D2Mqw6Sx7CG2eE--24" value="NO" style="edgeLabel;html=1;align=center;verticalAlign=middle;resizable=0;points=[];" vertex="1" connectable="0" parent="OphT5D2Mqw6Sx7CG2eE--11">
          <mxGeometry x="-0.4174" y="2" relative="1" as="geometry">
            <mxPoint as="offset" />
          </mxGeometry>
        </mxCell>
        <mxCell id="OphT5D2Mqw6Sx7CG2eE--2" value="PIN = 1234" style="strokeWidth=2;html=1;shape=mxgraph.flowchart.decision;whiteSpace=wrap;" vertex="1" parent="WIyWlLk6GJQsqaUBKTNV-1">
          <mxGeometry x="125" y="400" width="150" height="100" as="geometry" />
        </mxCell>
        <mxCell id="OphT5D2Mqw6Sx7CG2eE--3" value="PRINT &quot;YOUR BALANCE IS : &quot; + BALANCE" style="shape=parallelogram;html=1;strokeWidth=2;perimeter=parallelogramPerimeter;whiteSpace=wrap;rounded=1;arcSize=12;size=0.23;" vertex="1" parent="WIyWlLk6GJQsqaUBKTNV-1">
          <mxGeometry x="10" y="560" width="380" height="60" as="geometry" />
        </mxCell>
        <mxCell id="OphT5D2Mqw6Sx7CG2eE--5" style="edgeStyle=orthogonalEdgeStyle;rounded=0;orthogonalLoop=1;jettySize=auto;html=1;exitX=0.5;exitY=1;exitDx=0;exitDy=0;" edge="1" parent="WIyWlLk6GJQsqaUBKTNV-1" source="OphT5D2Mqw6Sx7CG2eE--4" target="OphT5D2Mqw6Sx7CG2eE--1">
          <mxGeometry relative="1" as="geometry" />
        </mxCell>
        <mxCell id="OphT5D2Mqw6Sx7CG2eE--4" value="BALANCE = 7500&lt;div&gt;COUNTER = 0&lt;/div&gt;" style="rounded=1;whiteSpace=wrap;html=1;absoluteArcSize=1;arcSize=14;strokeWidth=2;" vertex="1" parent="WIyWlLk6GJQsqaUBKTNV-1">
          <mxGeometry x="80" y="150" width="240" height="60" as="geometry" />
        </mxCell>
        <mxCell id="OphT5D2Mqw6Sx7CG2eE--6" style="edgeStyle=orthogonalEdgeStyle;rounded=0;orthogonalLoop=1;jettySize=auto;html=1;exitX=0.5;exitY=1;exitDx=0;exitDy=0;entryX=0.5;entryY=0;entryDx=0;entryDy=0;entryPerimeter=0;" edge="1" parent="WIyWlLk6GJQsqaUBKTNV-1" source="OphT5D2Mqw6Sx7CG2eE--1" target="OphT5D2Mqw6Sx7CG2eE--2">
          <mxGeometry relative="1" as="geometry" />
        </mxCell>
        <mxCell id="OphT5D2Mqw6Sx7CG2eE--10" value="COUNTER = COUNTER + 1" style="rounded=1;whiteSpace=wrap;html=1;absoluteArcSize=1;arcSize=14;strokeWidth=2;" vertex="1" parent="WIyWlLk6GJQsqaUBKTNV-1">
          <mxGeometry x="350" y="420" width="220" height="60" as="geometry" />
        </mxCell>
        <mxCell id="OphT5D2Mqw6Sx7CG2eE--15" style="edgeStyle=orthogonalEdgeStyle;rounded=0;orthogonalLoop=1;jettySize=auto;html=1;exitX=0.5;exitY=0;exitDx=0;exitDy=0;exitPerimeter=0;entryX=1;entryY=0.5;entryDx=0;entryDy=0;" edge="1" parent="WIyWlLk6GJQsqaUBKTNV-1" source="OphT5D2Mqw6Sx7CG2eE--12" target="OphT5D2Mqw6Sx7CG2eE--14">
          <mxGeometry relative="1" as="geometry">
            <Array as="points">
              <mxPoint x="730" y="295" />
            </Array>
          </mxGeometry>
        </mxCell>
        <mxCell id="OphT5D2Mqw6Sx7CG2eE--17" value="NO" style="edgeLabel;html=1;align=center;verticalAlign=middle;resizable=0;points=[];" vertex="1" connectable="0" parent="OphT5D2Mqw6Sx7CG2eE--15">
          <mxGeometry x="-0.5864" y="-2" relative="1" as="geometry">
            <mxPoint as="offset" />
          </mxGeometry>
        </mxCell>
        <mxCell id="OphT5D2Mqw6Sx7CG2eE--19" style="edgeStyle=orthogonalEdgeStyle;rounded=0;orthogonalLoop=1;jettySize=auto;html=1;exitX=0.5;exitY=1;exitDx=0;exitDy=0;exitPerimeter=0;entryX=0.5;entryY=0;entryDx=0;entryDy=0;" edge="1" parent="WIyWlLk6GJQsqaUBKTNV-1" source="OphT5D2Mqw6Sx7CG2eE--12" target="OphT5D2Mqw6Sx7CG2eE--18">
          <mxGeometry relative="1" as="geometry" />
        </mxCell>
        <mxCell id="OphT5D2Mqw6Sx7CG2eE--20" value="YES" style="edgeLabel;html=1;align=center;verticalAlign=middle;resizable=0;points=[];" vertex="1" connectable="0" parent="OphT5D2Mqw6Sx7CG2eE--19">
          <mxGeometry x="-0.6504" y="2" relative="1" as="geometry">
            <mxPoint as="offset" />
          </mxGeometry>
        </mxCell>
        <mxCell id="OphT5D2Mqw6Sx7CG2eE--12" value="COUNTER = 3" style="strokeWidth=2;html=1;shape=mxgraph.flowchart.decision;whiteSpace=wrap;" vertex="1" parent="WIyWlLk6GJQsqaUBKTNV-1">
          <mxGeometry x="660" y="400" width="140" height="100" as="geometry" />
        </mxCell>
        <mxCell id="OphT5D2Mqw6Sx7CG2eE--13" style="edgeStyle=orthogonalEdgeStyle;rounded=0;orthogonalLoop=1;jettySize=auto;html=1;exitX=1;exitY=0.5;exitDx=0;exitDy=0;entryX=0;entryY=0.5;entryDx=0;entryDy=0;entryPerimeter=0;" edge="1" parent="WIyWlLk6GJQsqaUBKTNV-1" source="OphT5D2Mqw6Sx7CG2eE--10" target="OphT5D2Mqw6Sx7CG2eE--12">
          <mxGeometry relative="1" as="geometry" />
        </mxCell>
        <mxCell id="OphT5D2Mqw6Sx7CG2eE--16" style="edgeStyle=orthogonalEdgeStyle;rounded=0;orthogonalLoop=1;jettySize=auto;html=1;exitX=0;exitY=0.5;exitDx=0;exitDy=0;" edge="1" parent="WIyWlLk6GJQsqaUBKTNV-1" source="OphT5D2Mqw6Sx7CG2eE--14" target="OphT5D2Mqw6Sx7CG2eE--1">
          <mxGeometry relative="1" as="geometry" />
        </mxCell>
        <mxCell id="OphT5D2Mqw6Sx7CG2eE--14" value="PRINT &quot; WRONG PIN &quot;" style="shape=parallelogram;html=1;strokeWidth=2;perimeter=parallelogramPerimeter;whiteSpace=wrap;rounded=1;arcSize=12;size=0.23;" vertex="1" parent="WIyWlLk6GJQsqaUBKTNV-1">
          <mxGeometry x="430" y="275" width="260" height="50" as="geometry" />
        </mxCell>
        <mxCell id="OphT5D2Mqw6Sx7CG2eE--18" value="PRINT &quot;CARD IS&amp;nbsp; LOCKED! &quot;" style="shape=parallelogram;html=1;strokeWidth=2;perimeter=parallelogramPerimeter;whiteSpace=wrap;rounded=1;arcSize=12;size=0.23;" vertex="1" parent="WIyWlLk6GJQsqaUBKTNV-1">
          <mxGeometry x="530" y="570" width="270" height="50" as="geometry" />
        </mxCell>
        <mxCell id="OphT5D2Mqw6Sx7CG2eE--21" value="END" style="strokeWidth=2;html=1;shape=mxgraph.flowchart.terminator;whiteSpace=wrap;" vertex="1" parent="WIyWlLk6GJQsqaUBKTNV-1">
          <mxGeometry x="390" y="700" width="100" height="60" as="geometry" />
        </mxCell>
        <mxCell id="OphT5D2Mqw6Sx7CG2eE--22" style="edgeStyle=orthogonalEdgeStyle;rounded=0;orthogonalLoop=1;jettySize=auto;html=1;exitX=0.5;exitY=1;exitDx=0;exitDy=0;entryX=0;entryY=0.5;entryDx=0;entryDy=0;entryPerimeter=0;" edge="1" parent="WIyWlLk6GJQsqaUBKTNV-1" source="OphT5D2Mqw6Sx7CG2eE--3" target="OphT5D2Mqw6Sx7CG2eE--21">
          <mxGeometry relative="1" as="geometry" />
        </mxCell>
        <mxCell id="OphT5D2Mqw6Sx7CG2eE--23" style="edgeStyle=orthogonalEdgeStyle;rounded=0;orthogonalLoop=1;jettySize=auto;html=1;exitX=0.5;exitY=1;exitDx=0;exitDy=0;entryX=1;entryY=0.5;entryDx=0;entryDy=0;entryPerimeter=0;" edge="1" parent="WIyWlLk6GJQsqaUBKTNV-1" source="OphT5D2Mqw6Sx7CG2eE--18" target="OphT5D2Mqw6Sx7CG2eE--21">
          <mxGeometry relative="1" as="geometry" />
        </mxCell>
      </root>
    </mxGraphModel>
  </diagram>
</mxfile>
